<?xml version="1.0" ?><svg enable-background="new 0 0 64 64" id="Layer_1_1_" version="1.1" viewBox="0 0 64 64" xml:space="preserve" xmlns="http://www.w3.org/2000/svg" xmlns:xlink="http://www.w3.org/1999/xlink"><g><g><path d="M39.5,63h-17c-1.4,0-2.5-1.1-2.5-2.5c0-0.6,0.2-1.1,0.5-1.5l3.4-4.3c-0.3-4.1-4-35.8-6-52.5L17.9,1h26.3    L44,2.1c-2,16.8-5.7,48.5-6,52.5l3.4,4.3c0.4,0.4,0.5,1,0.5,1.5C42,61.9,40.9,63,39.5,63z M20.1,3C21,10.6,26,52.5,26,55v0.4    l-3.9,4.9C22,60.3,22,60.4,22,60.5c0,0.3,0.2,0.5,0.5,0.5h17c0.3,0,0.5-0.2,0.5-0.5c0-0.1,0-0.2-0.1-0.3L36,55.4V55    c0-2.5,5-44.4,5.9-52H20.1z" fill="#333333"/></g><g><path d="M31,54c-2.3,0-3.6-2.3-4-3.7l-6-23l1.9-0.5l6,23c0,0,0.7,2.3,2,2.3s2-2.3,2-2.3l6-23l1.9,0.5l-6,23    C34.6,51.7,33.3,54,31,54z" fill="#333333"/></g><g><rect fill="#333333" height="2" width="22" x="20" y="8"/></g><g><rect fill="#333333" height="2" width="2" x="25" y="13"/></g><g><rect fill="#333333" height="2" width="2" x="28" y="19"/></g><g><rect fill="#333333" height="2" width="2" x="27" y="28"/></g><g><rect fill="#333333" height="2" width="2" x="29" y="38"/></g><g><rect fill="#333333" height="2" transform="matrix(6.249988e-002 -0.998 0.998 6.249988e-002 20.2443 49.5517)" width="16" x="28.5" y="13"/></g></g></svg>