<?xml version="1.0" ?><svg viewBox="0 0 32 32" xmlns="http://www.w3.org/2000/svg"><title/><g data-name="juice glass" id="juice_glass"><path d="M19.75,7H12.17A2.25,2.25,0,0,0,9.92,9.25V16A6,6,0,1,0,22,16V9.25A2.25,2.25,0,0,0,19.75,7Zm-4.16,4.34a7,7,0,0,1-3.67.79V9.25A.25.25,0,0,1,12.17,9h7.58a.25.25,0,0,1,.25.25v1.84A5.36,5.36,0,0,0,15.59,11.34Z"/><path d="M19,28H17l0-5.08a6.33,6.33,0,0,1-2,0L15,28H13a1,1,0,0,0,0,2h6a1,1,0,0,0,0-2Z"/><path d="M22,2H18a1,1,0,0,0-.93.63L15.52,6.5h2.15l1-2.5H22a1,1,0,0,0,0-2Z"/></g></svg>